<svg xmlns="http://www.w3.org/2000/svg" xmlns:xlink="http://www.w3.org/1999/xlink" width="500" zoomAndPan="magnify" viewBox="0 0 375 374.999991" height="500" preserveAspectRatio="xMidYMid meet" version="1.2"><g id="d3a2fb9387"><path style=" stroke:none;fill-rule:evenodd;fill:#8c52ff;fill-opacity:1;" d="M 94.902344 8.328125 C 90.371094 9.410156 84.53125 13.851562 82.519531 17.742188 C 79.136719 24.296875 79.414062 26.636719 86.949219 55.296875 C 90.851562 70.132812 94.363281 82.609375 94.757812 83.027344 C 95.820312 84.160156 142.582031 96.511719 143.304688 95.855469 C 143.648438 95.542969 147.769531 86.917969 152.464844 76.6875 C 157.160156 66.457031 162.167969 55.578125 163.59375 52.507812 C 171.257812 36.003906 174.914062 27.707031 174.625 27.480469 C 174.042969 27.019531 103.691406 8.460938 100.832031 8.015625 C 99.296875 7.773438 96.628906 7.914062 94.902344 8.328125 M 250.5625 12.59375 C 242.378906 14.878906 226.894531 19.097656 216.152344 21.96875 C 205.410156 24.839844 196.464844 27.328125 196.269531 27.492188 C 196.074219 27.660156 196.601562 29.246094 197.441406 31.015625 C 200.527344 37.519531 206.800781 51.15625 215.882812 71.109375 C 221.007812 82.363281 225.753906 92.648438 226.429688 93.96875 L 227.664062 96.371094 L 246.085938 91.515625 C 256.222656 88.84375 280.960938 82.21875 301.066406 76.792969 C 321.171875 71.363281 337.910156 66.921875 338.261719 66.921875 C 339.722656 66.921875 285.570312 13.59375 281.878906 11.398438 C 275.109375 7.367188 268.339844 7.628906 250.5625 12.59375 M 32.433594 66.75 C 8.378906 90.953125 4.792969 94.933594 3.386719 99.007812 C 1.441406 104.636719 1.363281 108.945312 3.09375 115.46875 C 3.8125 118.179688 7.417969 131.699219 11.101562 145.507812 C 14.789062 159.320312 18.445312 173.203125 19.234375 176.359375 L 20.664062 182.097656 L 25.40625 179.964844 C 28.019531 178.792969 41.242188 172.722656 54.796875 166.472656 C 68.351562 160.222656 81.863281 154.023438 84.824219 152.695312 C 88.238281 151.164062 90.035156 149.839844 89.746094 149.078125 C 89.492188 148.417969 87.414062 140.859375 85.125 132.28125 C 75.445312 95.96875 60.207031 39.476562 60.046875 39.3125 C 59.949219 39.21875 47.523438 51.5625 32.433594 66.75 M 339.84375 88.804688 C 335.238281 90.078125 325.824219 92.617188 318.917969 94.449219 C 312.011719 96.277344 303.644531 98.566406 300.316406 99.53125 L 294.273438 101.289062 L 288.398438 123.195312 C 285.167969 135.246094 282.449219 146.214844 282.355469 147.566406 C 282.152344 150.4375 281.824219 150.230469 299.386719 158.171875 C 306.292969 161.292969 314.453125 165.007812 317.523438 166.429688 C 336 174.988281 349.851562 181.3125 350.109375 181.3125 C 351.03125 181.3125 370.070312 108.496094 370.046875 105.042969 C 370.023438 101.277344 367.449219 95.273438 364.574219 92.277344 C 359.050781 86.523438 351.777344 85.5 339.84375 88.804688 M 21.316406 199.417969 C 21.316406 199.703125 13.316406 229.554688 4.484375 262.207031 C 2.503906 269.53125 1.738281 274.144531 2.046875 276.894531 C 2.507812 281.003906 7.164062 289.679688 8.679688 289.261719 C 9.144531 289.132812 9.890625 289.675781 10.332031 290.46875 C 11.273438 292.152344 16.703125 293.832031 21.230469 293.839844 C 22.96875 293.839844 33.851562 291.296875 45.410156 288.183594 C 79.398438 279.03125 77.355469 279.75 78.246094 276.605469 C 83.773438 257.027344 90.105469 231.136719 89.507812 230.550781 C 89.085938 230.140625 79.117188 225.433594 67.351562 220.089844 C 55.589844 214.742188 43.660156 209.3125 40.847656 208.011719 C 26.570312 201.433594 21.316406 199.121094 21.316406 199.417969 M 332.402344 206.917969 C 324.179688 210.734375 315.964844 214.566406 307.757812 218.417969 C 302.148438 221.054688 296.527344 223.671875 290.898438 226.265625 L 281.945312 230.390625 L 285.539062 243.75 C 287.515625 251.097656 290.632812 262.757812 292.460938 269.664062 C 299.625 296.71875 309.175781 332.058594 310.753906 337.363281 L 311.941406 341.359375 L 339.480469 313.648438 C 374.277344 278.632812 372.941406 281.515625 366.277344 255.882812 C 363.875 246.667969 361.433594 237.46875 358.945312 228.277344 C 356.996094 221.117188 354.453125 211.597656 353.292969 207.121094 C 352.136719 202.644531 350.726562 199.019531 350.164062 199.066406 C 349.601562 199.113281 341.609375 202.644531 332.402344 206.917969 M 112.457031 292.582031 C 94.402344 297.460938 76.339844 302.335938 58.28125 307.199219 L 33.398438 313.894531 L 61.535156 341.835938 C 91.96875 372.058594 91.84375 371.964844 101.941406 371.964844 C 104.480469 371.964844 110.917969 370.75 116.25 369.265625 C 121.582031 367.78125 134.941406 364.199219 145.9375 361.300781 C 172.097656 354.414062 175.699219 353.394531 175.699219 352.882812 C 175.699219 352.648438 172.769531 346.140625 169.1875 338.417969 C 165.605469 330.699219 162.679688 324.242188 162.679688 324.074219 C 162.679688 323.90625 160.144531 318.414062 157.046875 311.875 C 153.953125 305.332031 149.925781 296.507812 148.101562 292.261719 C 145.839844 286.992188 144.304688 284.5625 143.269531 284.601562 C 142.433594 284.636719 128.570312 288.226562 112.457031 292.582031 M 225.914062 289.425781 C 224.761719 292.113281 217.785156 307.4375 210.414062 323.484375 C 203.039062 339.53125 197.171875 352.828125 197.371094 353.027344 C 198.082031 353.738281 270.539062 372.894531 272.519531 372.894531 C 282.21875 372.894531 291.9375 363.351562 291.9375 353.828125 C 291.9375 352.804688 288.652344 339.625 284.640625 324.535156 L 277.339844 297.101562 L 254.1875 290.851562 C 241.453125 287.414062 230.351562 284.585938 229.519531 284.570312 C 228.566406 284.554688 227.230469 286.355469 225.914062 289.425781 "/></g></svg>