<svg xmlns="http://www.w3.org/2000/svg" xmlns:xlink="http://www.w3.org/1999/xlink" width="500" zoomAndPan="magnify" viewBox="0 0 375 374.999991" height="500" preserveAspectRatio="xMidYMid meet" version="1.0"><defs><clipPath id="82d05d541b"><path d="M 154.75 154.453125 L 220.25 154.453125 L 220.25 219.949219 L 154.75 219.949219 Z M 154.75 154.453125 " clip-rule="nonzero"/></clipPath><clipPath id="22d1fe7192"><path d="M 187.5 154.453125 C 169.414062 154.453125 154.75 169.113281 154.75 187.199219 C 154.75 205.285156 169.414062 219.949219 187.5 219.949219 C 205.585938 219.949219 220.25 205.285156 220.25 187.199219 C 220.25 169.113281 205.585938 154.453125 187.5 154.453125 Z M 187.5 154.453125 " clip-rule="nonzero"/></clipPath><clipPath id="8a4ff36e9a"><path d="M 214.53125 79.730469 L 260.28125 79.730469 L 260.28125 125.480469 L 214.53125 125.480469 Z M 214.53125 79.730469 " clip-rule="nonzero"/></clipPath><clipPath id="e7ae2a32c8"><path d="M 237.40625 79.730469 C 224.773438 79.730469 214.53125 89.972656 214.53125 102.605469 C 214.53125 115.238281 224.773438 125.480469 237.40625 125.480469 C 250.042969 125.480469 260.28125 115.238281 260.28125 102.605469 C 260.28125 89.972656 250.042969 79.730469 237.40625 79.730469 Z M 237.40625 79.730469 " clip-rule="nonzero"/></clipPath><clipPath id="e7262a6800"><path d="M 115.582031 79.730469 L 161.332031 79.730469 L 161.332031 125.480469 L 115.582031 125.480469 Z M 115.582031 79.730469 " clip-rule="nonzero"/></clipPath><clipPath id="5e4ce9749b"><path d="M 138.457031 79.730469 C 125.820312 79.730469 115.582031 89.972656 115.582031 102.605469 C 115.582031 115.238281 125.820312 125.480469 138.457031 125.480469 C 151.089844 125.480469 161.332031 115.238281 161.332031 102.605469 C 161.332031 89.972656 151.089844 79.730469 138.457031 79.730469 Z M 138.457031 79.730469 " clip-rule="nonzero"/></clipPath><clipPath id="52a0b6c1a9"><path d="M 262.957031 164.800781 L 308.707031 164.800781 L 308.707031 210.550781 L 262.957031 210.550781 Z M 262.957031 164.800781 " clip-rule="nonzero"/></clipPath><clipPath id="f5a84ac420"><path d="M 285.832031 164.800781 C 273.199219 164.800781 262.957031 175.042969 262.957031 187.675781 C 262.957031 200.3125 273.199219 210.550781 285.832031 210.550781 C 298.46875 210.550781 308.707031 200.3125 308.707031 187.675781 C 308.707031 175.042969 298.46875 164.800781 285.832031 164.800781 Z M 285.832031 164.800781 " clip-rule="nonzero"/></clipPath><clipPath id="ef5cdf8aba"><path d="M 213.367188 249.675781 L 259.117188 249.675781 L 259.117188 295.425781 L 213.367188 295.425781 Z M 213.367188 249.675781 " clip-rule="nonzero"/></clipPath><clipPath id="0825951e76"><path d="M 236.242188 249.675781 C 223.605469 249.675781 213.367188 259.917969 213.367188 272.550781 C 213.367188 285.183594 223.605469 295.425781 236.242188 295.425781 C 248.875 295.425781 259.117188 285.183594 259.117188 272.550781 C 259.117188 259.917969 248.875 249.675781 236.242188 249.675781 Z M 236.242188 249.675781 " clip-rule="nonzero"/></clipPath><clipPath id="cfd2a99da9"><path d="M 115.582031 249.675781 L 161.332031 249.675781 L 161.332031 295.425781 L 115.582031 295.425781 Z M 115.582031 249.675781 " clip-rule="nonzero"/></clipPath><clipPath id="f7cedcb6aa"><path d="M 138.457031 249.675781 C 125.820312 249.675781 115.582031 259.917969 115.582031 272.550781 C 115.582031 285.183594 125.820312 295.425781 138.457031 295.425781 C 151.089844 295.425781 161.332031 285.183594 161.332031 272.550781 C 161.332031 259.917969 151.089844 249.675781 138.457031 249.675781 Z M 138.457031 249.675781 " clip-rule="nonzero"/></clipPath><clipPath id="6ef7aca0a7"><path d="M 66.25 164.625 L 112 164.625 L 112 210.375 L 66.25 210.375 Z M 66.25 164.625 " clip-rule="nonzero"/></clipPath><clipPath id="a0eeb2844e"><path d="M 89.125 164.625 C 76.492188 164.625 66.25 174.867188 66.25 187.5 C 66.25 200.132812 76.492188 210.375 89.125 210.375 C 101.761719 210.375 112 200.132812 112 187.5 C 112 174.867188 101.761719 164.625 89.125 164.625 Z M 89.125 164.625 " clip-rule="nonzero"/></clipPath><clipPath id="a6ada51349"><path d="M 262.957031 25.898438 L 285.832031 25.898438 L 285.832031 48.773438 L 262.957031 48.773438 Z M 262.957031 25.898438 " clip-rule="nonzero"/></clipPath><clipPath id="e1318a316c"><path d="M 274.394531 25.898438 C 268.078125 25.898438 262.957031 31.015625 262.957031 37.335938 C 262.957031 43.652344 268.078125 48.773438 274.394531 48.773438 C 280.710938 48.773438 285.832031 43.652344 285.832031 37.335938 C 285.832031 31.015625 280.710938 25.898438 274.394531 25.898438 Z M 274.394531 25.898438 " clip-rule="nonzero"/></clipPath><clipPath id="65be02ed70"><path d="M 176.0625 3.023438 L 198.9375 3.023438 L 198.9375 25.898438 L 176.0625 25.898438 Z M 176.0625 3.023438 " clip-rule="nonzero"/></clipPath><clipPath id="230a1ff0a8"><path d="M 187.5 3.023438 C 181.183594 3.023438 176.0625 8.140625 176.0625 14.460938 C 176.0625 20.777344 181.183594 25.898438 187.5 25.898438 C 193.816406 25.898438 198.9375 20.777344 198.9375 14.460938 C 198.9375 8.140625 193.816406 3.023438 187.5 3.023438 Z M 187.5 3.023438 " clip-rule="nonzero"/></clipPath><clipPath id="6fee0d5981"><path d="M 89.125 26.0625 L 112 26.0625 L 112 48.9375 L 89.125 48.9375 Z M 89.125 26.0625 " clip-rule="nonzero"/></clipPath><clipPath id="96d7a25a49"><path d="M 100.5625 26.0625 C 94.246094 26.0625 89.125 31.183594 89.125 37.5 C 89.125 43.816406 94.246094 48.9375 100.5625 48.9375 C 106.878906 48.9375 112 43.816406 112 37.5 C 112 31.183594 106.878906 26.0625 100.5625 26.0625 Z M 100.5625 26.0625 " clip-rule="nonzero"/></clipPath><clipPath id="29b71989e3"><path d="M 326.0625 89.414062 L 348.9375 89.414062 L 348.9375 112.289062 L 326.0625 112.289062 Z M 326.0625 89.414062 " clip-rule="nonzero"/></clipPath><clipPath id="ab844f9548"><path d="M 337.5 89.414062 C 331.183594 89.414062 326.0625 94.535156 326.0625 100.851562 C 326.0625 107.171875 331.183594 112.289062 337.5 112.289062 C 343.816406 112.289062 348.9375 107.171875 348.9375 100.851562 C 348.9375 94.535156 343.816406 89.414062 337.5 89.414062 Z M 337.5 89.414062 " clip-rule="nonzero"/></clipPath><clipPath id="7b55117494"><path d="M 26.0625 89.414062 L 48.9375 89.414062 L 48.9375 112.289062 L 26.0625 112.289062 Z M 26.0625 89.414062 " clip-rule="nonzero"/></clipPath><clipPath id="c4fcdc4927"><path d="M 37.5 89.414062 C 31.183594 89.414062 26.0625 94.535156 26.0625 100.851562 C 26.0625 107.171875 31.183594 112.289062 37.5 112.289062 C 43.816406 112.289062 48.9375 107.171875 48.9375 100.851562 C 48.9375 94.535156 43.816406 89.414062 37.5 89.414062 Z M 37.5 89.414062 " clip-rule="nonzero"/></clipPath><clipPath id="5b42cf7679"><path d="M 3.1875 175.761719 L 26.0625 175.761719 L 26.0625 198.636719 L 3.1875 198.636719 Z M 3.1875 175.761719 " clip-rule="nonzero"/></clipPath><clipPath id="4af08773f2"><path d="M 14.625 175.761719 C 8.308594 175.761719 3.1875 180.882812 3.1875 187.199219 C 3.1875 193.515625 8.308594 198.636719 14.625 198.636719 C 20.941406 198.636719 26.0625 193.515625 26.0625 187.199219 C 26.0625 180.882812 20.941406 175.761719 14.625 175.761719 Z M 14.625 175.761719 " clip-rule="nonzero"/></clipPath><clipPath id="95a8705f60"><path d="M 26.0625 262.386719 L 48.9375 262.386719 L 48.9375 285.261719 L 26.0625 285.261719 Z M 26.0625 262.386719 " clip-rule="nonzero"/></clipPath><clipPath id="095cb811fd"><path d="M 37.5 262.386719 C 31.183594 262.386719 26.0625 267.507812 26.0625 273.824219 C 26.0625 280.140625 31.183594 285.261719 37.5 285.261719 C 43.816406 285.261719 48.9375 280.140625 48.9375 273.824219 C 48.9375 267.507812 43.816406 262.386719 37.5 262.386719 Z M 37.5 262.386719 " clip-rule="nonzero"/></clipPath><clipPath id="fb480f1316"><path d="M 326.0625 262.386719 L 348.9375 262.386719 L 348.9375 285.261719 L 326.0625 285.261719 Z M 326.0625 262.386719 " clip-rule="nonzero"/></clipPath><clipPath id="2090e34f67"><path d="M 337.5 262.386719 C 331.183594 262.386719 326.0625 267.507812 326.0625 273.824219 C 326.0625 280.140625 331.183594 285.261719 337.5 285.261719 C 343.816406 285.261719 348.9375 280.140625 348.9375 273.824219 C 348.9375 267.507812 343.816406 262.386719 337.5 262.386719 Z M 337.5 262.386719 " clip-rule="nonzero"/></clipPath><clipPath id="a7aab146f1"><path d="M 349.207031 175.761719 L 372.082031 175.761719 L 372.082031 198.636719 L 349.207031 198.636719 Z M 349.207031 175.761719 " clip-rule="nonzero"/></clipPath><clipPath id="c546fe6f6f"><path d="M 360.644531 175.761719 C 354.328125 175.761719 349.207031 180.882812 349.207031 187.199219 C 349.207031 193.515625 354.328125 198.636719 360.644531 198.636719 C 366.960938 198.636719 372.082031 193.515625 372.082031 187.199219 C 372.082031 180.882812 366.960938 175.761719 360.644531 175.761719 Z M 360.644531 175.761719 " clip-rule="nonzero"/></clipPath><clipPath id="138faa6c46"><path d="M 89.125 325.875 L 112 325.875 L 112 348.75 L 89.125 348.75 Z M 89.125 325.875 " clip-rule="nonzero"/></clipPath><clipPath id="81fcacac0b"><path d="M 100.5625 325.875 C 94.246094 325.875 89.125 330.996094 89.125 337.3125 C 89.125 343.628906 94.246094 348.75 100.5625 348.75 C 106.878906 348.75 112 343.628906 112 337.3125 C 112 330.996094 106.878906 325.875 100.5625 325.875 Z M 100.5625 325.875 " clip-rule="nonzero"/></clipPath><clipPath id="329ba3753f"><path d="M 176.0625 348.75 L 198.9375 348.75 L 198.9375 371.625 L 176.0625 371.625 Z M 176.0625 348.75 " clip-rule="nonzero"/></clipPath><clipPath id="3ddedc45cd"><path d="M 187.5 348.75 C 181.183594 348.75 176.0625 353.871094 176.0625 360.1875 C 176.0625 366.503906 181.183594 371.625 187.5 371.625 C 193.816406 371.625 198.9375 366.503906 198.9375 360.1875 C 198.9375 353.871094 193.816406 348.75 187.5 348.75 Z M 187.5 348.75 " clip-rule="nonzero"/></clipPath><clipPath id="62bd4cdccc"><path d="M 262.957031 325.875 L 285.832031 325.875 L 285.832031 348.75 L 262.957031 348.75 Z M 262.957031 325.875 " clip-rule="nonzero"/></clipPath><clipPath id="2c31f6f677"><path d="M 274.394531 325.875 C 268.078125 325.875 262.957031 330.996094 262.957031 337.3125 C 262.957031 343.628906 268.078125 348.75 274.394531 348.75 C 280.710938 348.75 285.832031 343.628906 285.832031 337.3125 C 285.832031 330.996094 280.710938 325.875 274.394531 325.875 Z M 274.394531 325.875 " clip-rule="nonzero"/></clipPath></defs><g clip-path="url(#82d05d541b)"><g clip-path="url(#22d1fe7192)"><path fill="#ffffff" d="M 154.75 154.453125 L 220.25 154.453125 L 220.25 219.949219 L 154.75 219.949219 Z M 154.75 154.453125 " fill-opacity="1" fill-rule="nonzero"/></g></g><g clip-path="url(#8a4ff36e9a)"><g clip-path="url(#e7ae2a32c8)"><path fill="#ffffff" d="M 214.53125 79.730469 L 260.28125 79.730469 L 260.28125 125.480469 L 214.53125 125.480469 Z M 214.53125 79.730469 " fill-opacity="1" fill-rule="nonzero"/></g></g><g clip-path="url(#e7262a6800)"><g clip-path="url(#5e4ce9749b)"><path fill="#ffffff" d="M 115.582031 79.730469 L 161.332031 79.730469 L 161.332031 125.480469 L 115.582031 125.480469 Z M 115.582031 79.730469 " fill-opacity="1" fill-rule="nonzero"/></g></g><g clip-path="url(#52a0b6c1a9)"><g clip-path="url(#f5a84ac420)"><path fill="#ffffff" d="M 262.957031 164.800781 L 308.707031 164.800781 L 308.707031 210.550781 L 262.957031 210.550781 Z M 262.957031 164.800781 " fill-opacity="1" fill-rule="nonzero"/></g></g><g clip-path="url(#ef5cdf8aba)"><g clip-path="url(#0825951e76)"><path fill="#ffffff" d="M 213.367188 249.675781 L 259.117188 249.675781 L 259.117188 295.425781 L 213.367188 295.425781 Z M 213.367188 249.675781 " fill-opacity="1" fill-rule="nonzero"/></g></g><g clip-path="url(#cfd2a99da9)"><g clip-path="url(#f7cedcb6aa)"><path fill="#ffffff" d="M 115.582031 249.675781 L 161.332031 249.675781 L 161.332031 295.425781 L 115.582031 295.425781 Z M 115.582031 249.675781 " fill-opacity="1" fill-rule="nonzero"/></g></g><g clip-path="url(#6ef7aca0a7)"><g clip-path="url(#a0eeb2844e)"><path fill="#ffffff" d="M 66.25 164.625 L 112 164.625 L 112 210.375 L 66.25 210.375 Z M 66.25 164.625 " fill-opacity="1" fill-rule="nonzero"/></g></g><g clip-path="url(#a6ada51349)"><g clip-path="url(#e1318a316c)"><path fill="#ffffff" d="M 262.957031 25.898438 L 285.832031 25.898438 L 285.832031 48.773438 L 262.957031 48.773438 Z M 262.957031 25.898438 " fill-opacity="1" fill-rule="nonzero"/></g></g><g clip-path="url(#65be02ed70)"><g clip-path="url(#230a1ff0a8)"><path fill="#ffffff" d="M 176.0625 3.023438 L 198.9375 3.023438 L 198.9375 25.898438 L 176.0625 25.898438 Z M 176.0625 3.023438 " fill-opacity="1" fill-rule="nonzero"/></g></g><g clip-path="url(#6fee0d5981)"><g clip-path="url(#96d7a25a49)"><path fill="#ffffff" d="M 89.125 26.0625 L 112 26.0625 L 112 48.9375 L 89.125 48.9375 Z M 89.125 26.0625 " fill-opacity="1" fill-rule="nonzero"/></g></g><g clip-path="url(#29b71989e3)"><g clip-path="url(#ab844f9548)"><path fill="#ffffff" d="M 326.0625 89.414062 L 348.9375 89.414062 L 348.9375 112.289062 L 326.0625 112.289062 Z M 326.0625 89.414062 " fill-opacity="1" fill-rule="nonzero"/></g></g><g clip-path="url(#7b55117494)"><g clip-path="url(#c4fcdc4927)"><path fill="#ffffff" d="M 26.0625 89.414062 L 48.9375 89.414062 L 48.9375 112.289062 L 26.0625 112.289062 Z M 26.0625 89.414062 " fill-opacity="1" fill-rule="nonzero"/></g></g><g clip-path="url(#5b42cf7679)"><g clip-path="url(#4af08773f2)"><path fill="#ffffff" d="M 3.1875 175.761719 L 26.0625 175.761719 L 26.0625 198.636719 L 3.1875 198.636719 Z M 3.1875 175.761719 " fill-opacity="1" fill-rule="nonzero"/></g></g><g clip-path="url(#95a8705f60)"><g clip-path="url(#095cb811fd)"><path fill="#ffffff" d="M 26.0625 262.386719 L 48.9375 262.386719 L 48.9375 285.261719 L 26.0625 285.261719 Z M 26.0625 262.386719 " fill-opacity="1" fill-rule="nonzero"/></g></g><g clip-path="url(#fb480f1316)"><g clip-path="url(#2090e34f67)"><path fill="#ffffff" d="M 326.0625 262.386719 L 348.9375 262.386719 L 348.9375 285.261719 L 326.0625 285.261719 Z M 326.0625 262.386719 " fill-opacity="1" fill-rule="nonzero"/></g></g><g clip-path="url(#a7aab146f1)"><g clip-path="url(#c546fe6f6f)"><path fill="#ffffff" d="M 349.207031 175.761719 L 372.082031 175.761719 L 372.082031 198.636719 L 349.207031 198.636719 Z M 349.207031 175.761719 " fill-opacity="1" fill-rule="nonzero"/></g></g><g clip-path="url(#138faa6c46)"><g clip-path="url(#81fcacac0b)"><path fill="#ffffff" d="M 89.125 325.875 L 112 325.875 L 112 348.75 L 89.125 348.75 Z M 89.125 325.875 " fill-opacity="1" fill-rule="nonzero"/></g></g><g clip-path="url(#329ba3753f)"><g clip-path="url(#3ddedc45cd)"><path fill="#ffffff" d="M 176.0625 348.75 L 198.9375 348.75 L 198.9375 371.625 L 176.0625 371.625 Z M 176.0625 348.75 " fill-opacity="1" fill-rule="nonzero"/></g></g><g clip-path="url(#62bd4cdccc)"><g clip-path="url(#2c31f6f677)"><path fill="#ffffff" d="M 262.957031 325.875 L 285.832031 325.875 L 285.832031 348.75 L 262.957031 348.75 Z M 262.957031 325.875 " fill-opacity="1" fill-rule="nonzero"/></g></g></svg>