<svg xmlns="http://www.w3.org/2000/svg" xmlns:xlink="http://www.w3.org/1999/xlink" width="500" zoomAndPan="magnify" viewBox="0 0 375 374.999991" height="500" preserveAspectRatio="xMidYMid meet" version="1.0"><path fill="#ffffff" d="M 226.34375 6.359375 C 224.410156 6.433594 222.6875 6.5625 222.515625 6.640625 C 222.34375 6.722656 221.078125 6.898438 219.699219 7.035156 C 213.683594 7.632812 206.867188 8.808594 201.960938 10.097656 C 196.679688 11.480469 192.601562 12.667969 189.898438 13.605469 C 185.878906 15.003906 177.53125 18.46875 174.214844 20.121094 C 169.640625 22.398438 162.128906 26.835938 157.644531 29.90625 C 155.304688 31.511719 150.613281 35.011719 149.75 35.796875 C 149.363281 36.152344 148.484375 36.890625 147.796875 37.441406 C 146.433594 38.535156 141.199219 43.089844 139.617188 44.566406 C 138.570312 45.542969 132.65625 51.902344 131.953125 52.804688 C 131.726562 53.101562 130.804688 54.210938 129.902344 55.277344 C 126.691406 59.070312 121.710938 65.972656 119.1875 70.113281 C 117.859375 72.292969 115.988281 75.542969 115.988281 75.667969 C 115.988281 75.699219 115.75 76.097656 115.460938 76.550781 C 114.773438 77.625 111.621094 83.925781 110.933594 85.605469 C 110.636719 86.324219 109.921875 88.035156 109.347656 89.410156 C 108.769531 90.789062 107.933594 92.863281 107.488281 94.023438 L 106.675781 96.132812 L 100.117188 96.230469 C 92.128906 96.347656 89.804688 96.539062 83.941406 97.558594 C 80.144531 98.21875 74.875 99.460938 71.515625 100.492188 C 69.910156 100.980469 64.34375 103.144531 62.214844 104.101562 C 60.671875 104.796875 56.992188 106.660156 54.710938 107.902344 C 50.097656 110.410156 42.957031 115.507812 39.320312 118.894531 C 38.800781 119.375 37.882812 120.195312 37.28125 120.710938 C 34.238281 123.328125 28.035156 130.457031 25.140625 134.664062 C 22.375 138.6875 19.367188 143.894531 17.683594 147.570312 C 17.097656 148.855469 16.441406 150.257812 16.226562 150.6875 C 15.832031 151.472656 15.152344 153.257812 13.863281 156.859375 C 12.609375 160.371094 10.355469 169.277344 10.011719 172.101562 C 9.925781 172.789062 9.714844 174.292969 9.542969 175.445312 C 8.8125 180.335938 8.832031 177.628906 8.832031 274.878906 L 8.832031 366.710938 L 47.988281 366.761719 C 69.527344 366.789062 89.835938 366.761719 93.125 366.703125 L 99.105469 366.597656 L 99.105469 254.957031 C 99.105469 138.214844 99.09375 140.207031 99.726562 130.507812 C 99.90625 127.722656 100.542969 122.730469 101.171875 119.1875 C 101.4375 117.683594 101.746094 115.859375 101.859375 115.128906 C 102.488281 111.066406 106.214844 98.125 107.160156 96.714844 C 107.21875 96.628906 278.925781 96.6875 279.011719 96.773438 C 279.058594 96.820312 279.082031 135.457031 279.058594 182.625 L 279.015625 268.390625 L 278.695312 268.65625 C 278.523438 268.804688 277.664062 269.144531 276.785156 269.410156 C 275.785156 269.71875 274.785156 270.027344 273.785156 270.34375 C 271.855469 270.957031 269.972656 271.476562 267.296875 272.132812 C 266.050781 272.441406 264.644531 272.796875 264.171875 272.929688 C 261.625 273.628906 255.988281 274.621094 251.355469 275.1875 C 243.808594 276.109375 248.496094 276.035156 193.988281 276.085938 L 144.042969 276.128906 L 144.007812 321.265625 C 143.988281 346.089844 144.03125 366.492188 144.101562 366.605469 C 144.242188 366.828125 142.652344 366.824219 173.277344 366.726562 C 187.65625 366.679688 189.253906 366.628906 192.75 366.085938 C 193.558594 365.957031 194.996094 365.746094 195.941406 365.613281 C 199.566406 365.105469 200.84375 364.875 203.660156 364.21875 C 214.28125 361.734375 223.601562 357.867188 233.492188 351.839844 C 236.25 350.160156 242.097656 345.859375 245.359375 343.113281 C 247.496094 341.3125 251.734375 337.238281 253.253906 335.527344 C 260.300781 327.589844 264.65625 321.265625 268.871094 312.863281 C 271.128906 308.359375 272.695312 304.667969 274.042969 300.671875 C 277.042969 291.765625 278.609375 283.746094 279.023438 275.160156 C 279.246094 270.527344 279.355469 269.195312 279.53125 268.976562 C 279.613281 268.871094 279.976562 268.699219 280.328125 268.601562 C 281.363281 268.304688 285.734375 266.574219 288.871094 265.21875 C 298.3125 261.132812 309.003906 254.707031 317.859375 247.796875 C 320.25 245.929688 324.5 242.199219 327.03125 239.738281 C 328.4375 238.375 330.179688 236.699219 330.902344 236.019531 C 332.742188 234.285156 338.703125 227.449219 340.984375 224.464844 C 343.910156 220.632812 347.277344 215.773438 349.046875 212.820312 C 350.105469 211.058594 351.199219 209.265625 351.476562 208.835938 C 352.132812 207.820312 354.160156 203.980469 356.011719 200.238281 C 357.332031 197.566406 358.855469 194.035156 360.191406 190.546875 C 361.941406 185.976562 362.6875 183.917969 362.867188 183.144531 C 362.984375 182.660156 363.328125 181.453125 363.636719 180.464844 C 364.710938 177.023438 365.582031 173.632812 366.246094 170.304688 C 367.363281 164.695312 367.699219 162.800781 368.109375 159.753906 C 369.21875 151.523438 369.597656 142.976562 369.210938 134.828125 C 368.515625 120.09375 364.902344 103.6875 359.542969 90.898438 C 359.128906 89.90625 358.449219 88.253906 358.035156 87.222656 C 356.167969 82.589844 350.722656 72.601562 347.292969 67.527344 C 343.394531 61.753906 342.886719 61.046875 340.46875 57.992188 C 336.652344 53.175781 334.015625 50.265625 328.703125 45.015625 C 324.503906 40.863281 323.867188 40.273438 320.90625 37.800781 C 316.359375 34 310.226562 29.550781 305.515625 26.632812 C 301.691406 24.265625 299.550781 23.085938 294.261719 20.429688 C 289.9375 18.257812 288.609375 17.664062 282.851562 15.320312 C 277.414062 13.105469 269.4375 10.722656 262.402344 9.210938 C 250.832031 6.722656 239.679688 5.84375 226.34375 6.359375 " fill-opacity="1" fill-rule="evenodd"/></svg>