<svg xmlns="http://www.w3.org/2000/svg" xmlns:xlink="http://www.w3.org/1999/xlink" width="500" zoomAndPan="magnify" viewBox="0 0 375 374.999991" height="500" preserveAspectRatio="xMidYMid meet" version="1.0"><path fill="#7015d6" d="M 192.082031 100.335938 C 192.367188 102.949219 192.765625 105.550781 193.269531 108.132812 C 193.773438 110.714844 194.390625 113.269531 195.109375 115.800781 C 195.832031 118.332031 196.660156 120.828125 197.59375 123.289062 C 198.527344 125.746094 199.5625 128.164062 200.699219 130.535156 C 201.835938 132.910156 203.070312 135.230469 204.40625 137.5 C 205.738281 139.765625 207.167969 141.972656 208.6875 144.121094 C 210.210938 146.269531 211.816406 148.347656 213.515625 150.359375 C 215.210938 152.371094 216.988281 154.304688 218.851562 156.167969 C 220.710938 158.027344 222.648438 159.804688 224.660156 161.503906 C 226.667969 163.199219 228.75 164.808594 230.894531 166.328125 C 233.042969 167.851562 235.25 169.277344 237.519531 170.613281 C 239.789062 171.945312 242.109375 173.179688 244.480469 174.320312 C 246.851562 175.457031 249.269531 176.492188 251.730469 177.425781 C 254.191406 178.359375 256.683594 179.183594 259.214844 179.90625 C 261.746094 180.628906 264.300781 181.242188 266.886719 181.75 C 269.46875 182.253906 272.066406 182.648438 274.683594 182.933594 C 300.035156 185.710938 332.765625 187.507812 375.015625 187.507812 C 332.765625 187.507812 300.035156 189.304688 274.683594 192.082031 C 272.066406 192.367188 269.46875 192.765625 266.882812 193.269531 C 264.300781 193.773438 261.746094 194.390625 259.214844 195.109375 C 256.683594 195.832031 254.191406 196.660156 251.730469 197.59375 C 249.269531 198.527344 246.851562 199.5625 244.480469 200.699219 C 242.109375 201.835938 239.785156 203.070312 237.519531 204.40625 C 235.25 205.738281 233.042969 207.167969 230.894531 208.6875 C 228.75 210.207031 226.667969 211.816406 224.65625 213.515625 C 222.648438 215.210938 220.710938 216.988281 218.851562 218.851562 C 216.988281 220.710938 215.210938 222.648438 213.515625 224.65625 C 211.816406 226.667969 210.207031 228.75 208.6875 230.894531 C 207.167969 233.042969 205.738281 235.25 204.40625 237.519531 C 203.070312 239.785156 201.835938 242.109375 200.699219 244.480469 C 199.5625 246.851562 198.527344 249.269531 197.59375 251.730469 C 196.660156 254.191406 195.832031 256.683594 195.109375 259.214844 C 194.390625 261.746094 193.773438 264.300781 193.269531 266.882812 C 192.765625 269.46875 192.367188 272.066406 192.082031 274.683594 C 189.304688 300.035156 187.507812 332.765625 187.507812 375.015625 C 187.507812 332.765625 185.710938 300.035156 182.933594 274.683594 C 182.648438 272.066406 182.253906 269.46875 181.75 266.886719 C 181.242188 264.300781 180.628906 261.746094 179.90625 259.214844 C 179.183594 256.683594 178.359375 254.191406 177.425781 251.730469 C 176.492188 249.269531 175.457031 246.851562 174.320312 244.480469 C 173.179688 242.109375 171.945312 239.789062 170.613281 237.519531 C 169.277344 235.25 167.851562 233.042969 166.328125 230.894531 C 164.808594 228.75 163.199219 226.667969 161.503906 224.660156 C 159.804688 222.648438 158.027344 220.710938 156.167969 218.851562 C 154.304688 216.988281 152.371094 215.210938 150.359375 213.515625 C 148.347656 211.816406 146.269531 210.210938 144.121094 208.6875 C 141.972656 207.167969 139.765625 205.738281 137.5 204.40625 C 135.230469 203.070312 132.910156 201.835938 130.535156 200.699219 C 128.164062 199.5625 125.746094 198.527344 123.289062 197.59375 C 120.828125 196.660156 118.332031 195.832031 115.800781 195.109375 C 113.269531 194.390625 110.714844 193.773438 108.132812 193.269531 C 105.550781 192.765625 102.949219 192.367188 100.335938 192.082031 C 74.980469 189.304688 42.25 187.507812 0 187.507812 C 42.25 187.507812 74.980469 185.710938 100.335938 182.933594 C 102.949219 182.648438 105.550781 182.253906 108.132812 181.75 C 110.714844 181.242188 113.269531 180.628906 115.800781 179.90625 C 118.332031 179.183594 120.828125 178.359375 123.289062 177.425781 C 125.746094 176.492188 128.164062 175.457031 130.535156 174.320312 C 132.910156 173.179688 135.230469 171.945312 137.496094 170.609375 C 139.765625 169.277344 141.972656 167.851562 144.121094 166.328125 C 146.269531 164.808594 148.347656 163.199219 150.359375 161.503906 C 152.371094 159.804688 154.304688 158.027344 156.167969 156.167969 C 158.027344 154.304688 159.804688 152.371094 161.503906 150.359375 C 163.199219 148.347656 164.808594 146.269531 166.328125 144.121094 C 167.851562 141.972656 169.277344 139.765625 170.613281 137.496094 C 171.945312 135.230469 173.179688 132.910156 174.320312 130.535156 C 175.457031 128.164062 176.492188 125.746094 177.425781 123.289062 C 178.359375 120.828125 179.183594 118.332031 179.90625 115.800781 C 180.628906 113.269531 181.242188 110.714844 181.75 108.132812 C 182.253906 105.550781 182.648438 102.949219 182.933594 100.335938 C 185.710938 74.980469 187.507812 42.253906 187.507812 0 C 187.507812 42.25 189.304688 74.980469 192.082031 100.335938 Z M 192.082031 100.335938 " fill-opacity="1" fill-rule="nonzero"/></svg>